<svg version="1.1" id="Layer_1" xmlns="http://www.w3.org/2000/svg" x="0" y="0" viewBox="0 0 273 52" style="enable-background:new 0 0 273 52" xml:space="preserve">
  <style>
    path{fill:#000}
  </style>
  <path d="M115.32 15.54c-5.71 0-10.35 4.65-10.35 10.35s4.64 10.35 10.35 10.35 10.35-4.65 10.35-10.35-4.64-10.35-10.35-10.35zm0 17.76c-4.08 0-7.4-3.32-7.4-7.4s3.32-7.4 7.4-7.4 7.4 3.32 7.4 7.4-3.32 7.4-7.4 7.4z"/>
  <path style="fill:#000" d="M184.94 10.04h2.94v3.2h-2.94z"/>
  <path d="M148.8 26.4c0 1.91-.68 3.55-2.01 4.88-1.32 1.33-2.96 2-4.87 2-1.87 0-3.51-.69-4.86-2.04-1.36-1.36-2.04-2.99-2.04-4.85V16.04h-2.94V26.4c0 2.69.97 5.02 2.89 6.95 1.93 1.92 4.27 2.89 6.95 2.89 2.72 0 5.06-.97 6.96-2.89 1.9-1.92 2.86-4.26 2.86-6.94V16.04h-2.94V26.4zm93.49 0c0 1.91-.68 3.55-2.02 4.88-1.32 1.33-2.96 2-4.87 2-1.87 0-3.51-.69-4.86-2.04-1.36-1.36-2.04-2.99-2.04-4.85V16.04h-2.94V26.4c0 2.69.97 5.03 2.89 6.95 1.93 1.92 4.27 2.89 6.95 2.89 2.72 0 5.06-.97 6.96-2.89 1.9-1.92 2.86-4.26 2.86-6.94V16.04h-2.94V26.4zm-146.69 0c0 1.91-.68 3.55-2.02 4.88-1.32 1.33-2.96 2-4.87 2-1.87 0-3.5-.69-4.86-2.04-1.36-1.36-2.05-2.99-2.05-4.85V16.04h-2.94V26.4c0 2.69.97 5.02 2.89 6.95 1.93 1.92 4.27 2.89 6.95 2.89 2.68 0 4.99-.94 6.88-2.81V35c0 1.87-.69 3.5-2.04 4.85-1.25 1.26-2.76 1.94-4.48 2.03l-.45.02v2.95l.49-.02c2.55-.1 4.68-1.05 6.51-2.89 1.95-1.95 2.9-4.22 2.9-6.94V16.05H95.6V26.4zm72.71-10.86c-2.69 0-5.02.97-6.93 2.9-1.95 1.94-2.9 4.21-2.9 6.94v10.37h2.94V25.38c0-1.87.69-3.5 2.04-4.86 1.36-1.35 2.99-2.04 4.85-2.04 1.91 0 3.56.68 4.88 2.02 1.34 1.33 2.01 2.97 2.01 4.88v10.37h2.94V25.38c0-2.68-.97-5.02-2.87-6.94-1.91-1.95-4.19-2.9-6.96-2.9zm50.68 10.36c0-5.71-4.65-10.35-10.35-10.35-5.71 0-10.35 4.64-10.35 10.35s4.64 10.35 10.35 10.35c1.4 0 2.75-.27 4.03-.81l2.86 2.85 4.25.07-4.54-4.48c2.35-1.96 3.75-4.9 3.75-7.98zm-10.36 7.4c-4.08 0-7.4-3.32-7.4-7.4s3.32-7.4 7.4-7.4 7.4 3.32 7.4 7.4-3.32 7.4-7.4 7.4zm53.39-17.77c-5.71 0-10.36 4.65-10.36 10.36 0 5.71 4.65 10.36 10.36 10.36 3.13 0 6.05-1.39 8.03-3.82l.63-.78h-4.04l-.13.1a7.392 7.392 0 0 1-11.25-2.85h16.67l.09-.35c.23-.87.35-1.77.35-2.67.02-5.71-4.63-10.35-10.35-10.35zm7.41 10.48h-14.81v-.12c0-4.08 3.32-7.41 7.41-7.41 4.08 0 7.4 3.32 7.4 7.41v.12zm-81.64.76V16.13h-2.85v10.63c0 5.15 4.19 9.34 9.34 9.34h.48v-2.85h-.48c-3.58 0-6.49-2.91-6.49-6.48zM26.11.5C12.03.5.61 11.92.61 26s11.42 25.5 25.5 25.5 25.5-11.42 25.5-25.5S40.2.5 26.11.5zm-7.99 39.41c-1.06-1.75-1.5-4.25-1.68-7.49 3.66.02 5.83 1.09 7.12 3.22.78 1.29 1.24 2.6 1.5 7.37-3.58 0-5.69-1.03-6.94-3.1zm7.34-8.61c-4.16 0-6.61-1.2-8.06-3.59-1.79-2.96-2.06-7.75-2.09-14.37v-3.6c4.16 0 6.61 1.2 8.06 3.59 1.79 2.96 2.06 7.75 2.09 14.37v3.6zm11.46-8.25c0 1.16 0 2.26-.01 3.32h.01C36.86 37.46 36.12 43 27.63 43V29.7c0-1.16 0-2.27.01-3.33h-.01c.06-11.09.82-16.63 9.29-16.63v13.31z"/>
</svg>
